<?xml version="1.0" encoding="utf-8"?>
<!-- Generator: Adobe Illustrator 19.1.0, SVG Export Plug-In . SVG Version: 6.00 Build 0)  -->
<svg version="1.1" id="Layer_1" xmlns="http://www.w3.org/2000/svg" xmlns:xlink="http://www.w3.org/1999/xlink" x="0px" y="0px"
	 viewBox="0 0 457.2 223.5" style="enable-background:new 0 0 457.2 223.5;" xml:space="preserve">
<style type="text/css">
	.st0{filter:url(#Adobe_OpacityMaskFilter);}
	.st1{filter:url(#Adobe_OpacityMaskFilter_1_);}
	.st2{mask:url(#SVGID_1_);fill:url(#SVGID_2_);}
	.st3{fill:#E92629;}
	.st4{fill:#424242;}
	.st5{filter:url(#Adobe_OpacityMaskFilter_2_);}
	.st6{filter:url(#Adobe_OpacityMaskFilter_3_);}
	.st7{mask:url(#SVGID_3_);fill:url(#SVGID_4_);}
	.st8{filter:url(#Adobe_OpacityMaskFilter_4_);}
	.st9{filter:url(#Adobe_OpacityMaskFilter_5_);}
	.st10{mask:url(#SVGID_5_);fill:url(#SVGID_6_);}
	.st11{filter:url(#Adobe_OpacityMaskFilter_6_);}
	.st12{filter:url(#Adobe_OpacityMaskFilter_7_);}
	.st13{mask:url(#SVGID_7_);fill:url(#SVGID_8_);}
</style>
<g>
	<defs>
		<filter id="Adobe_OpacityMaskFilter" filterUnits="userSpaceOnUse" x="384.8" y="20.4" width="58.8" height="59.3">
			<feFlood  style="flood-color:white;flood-opacity:1" result="back"/>
			<feBlend  in="SourceGraphic" in2="back" mode="normal"/>
		</filter>
	</defs>
	<mask maskUnits="userSpaceOnUse" x="384.8" y="20.4" width="58.8" height="59.3" id="SVGID_1_">
		<g class="st0">
			<defs>
				<filter id="Adobe_OpacityMaskFilter_1_" filterUnits="userSpaceOnUse" x="384.8" y="20.4" width="58.8" height="59.3">
					<feFlood  style="flood-color:white;flood-opacity:1" result="back"/>
					<feBlend  in="SourceGraphic" in2="back" mode="normal"/>
				</filter>
			</defs>
			<mask maskUnits="userSpaceOnUse" x="384.8" y="20.4" width="58.8" height="59.3" id="SVGID_1_">
				<g class="st1">
				</g>
			</mask>
			
				<linearGradient id="SVGID_2_" gradientUnits="userSpaceOnUse" x1="433.1959" y1="13.3669" x2="402.0691" y2="65.3928" gradientTransform="matrix(0.9991 4.200000e-002 -4.200000e-002 0.9991 2.8531 -12.7652)">
				<stop  offset="0" style="stop-color:#FFFFFF"/>
				<stop  offset="0.4271" style="stop-color:#F7F7F7"/>
				<stop  offset="1" style="stop-color:#F2F2F2"/>
			</linearGradient>
			<path class="st2" d="M443.6,44.7c-0.2-13.5-12.7-24.5-27.9-24.3c-4.2,0.1-8.1,1-11.6,2.5c-0.2,1-0.5,2-0.7,2.9
				c3.6-1.9,7.8-3,12.4-3.1c0.6,0,1.1,0,1.7,0c13.2,0.6,23.7,10.2,23.9,22c0.1,6-2.4,11.6-7.1,15.9c-4.7,4.3-11,6.8-17.8,6.9
				c-1.4,0-2.7-0.1-4.1-0.2l-0.3,0l-18.4,6.7l9.4-9.6l-1.3-0.8c-6.7-4.1-10.8-10.8-10.9-18.1c0-0.6,0-1.2,0.1-1.8
				c-0.3,0-0.6,0-0.9,0c-0.5,0-1-0.1-1.5-0.2c-0.1,0.7-0.1,1.3-0.1,2c0.1,7.6,4.1,14.7,10.8,19.2l-14.6,14.9l27.5-10.1
				c1.4,0.2,2.8,0.2,4.2,0.2c7.3-0.1,14.2-2.8,19.3-7.5C441,57.5,443.7,51.3,443.6,44.7z"/>
		</g>
	</mask>
	<path class="st3" d="M443.6,44.7c-0.2-13.5-12.7-24.5-27.9-24.3c-4.2,0.1-8.1,1-11.6,2.5c-0.2,1-0.5,2-0.7,2.9
		c3.6-1.9,7.8-3,12.4-3.1c0.6,0,1.1,0,1.7,0c13.2,0.6,23.7,10.2,23.9,22c0.1,6-2.4,11.6-7.1,15.9c-4.7,4.3-11,6.8-17.8,6.9
		c-1.4,0-2.7-0.1-4.1-0.2l-0.3,0l-18.4,6.7l9.4-9.6l-1.3-0.8c-6.7-4.1-10.8-10.8-10.9-18.1c0-0.6,0-1.2,0.1-1.8c-0.3,0-0.6,0-0.9,0
		c-0.5,0-1-0.1-1.5-0.2c-0.1,0.7-0.1,1.3-0.1,2c0.1,7.6,4.1,14.7,10.8,19.2l-14.6,14.9l27.5-10.1c1.4,0.2,2.8,0.2,4.2,0.2
		c7.3-0.1,14.2-2.8,19.3-7.5C441,57.5,443.7,51.3,443.6,44.7z"/>
	<g>
		<path class="st3" d="M62.5,113.6c0,0-0.1-0.1-0.1-0.1c-3.4-5.3-8-9.4-13.6-12c-4.5-2.2-9.4-3.3-14.5-3.3c-1.2,0-2.3,0.1-3.4,0.2
			c-7.4,0.8-14,3.7-19.6,8.8c-5.5,5-9,11.2-10.6,18.5c-1,4.6-1.1,9.5-0.1,14.3c0.9,4.9,2.8,9.3,5.5,13.2c2.7,3.9,6.3,7.2,10.5,9.7
			c4.3,2.5,8.8,4,13.6,4.5c1.1,0.1,2.2,0.2,3.3,0.2c5.6,0,11-1.4,16-4.3h0.1l0.3-0.2c5.2-3.5,9.3-7.9,12.4-13.1v16.3h5.3V99.7h-5.3
			V113.6z M30.9,162.1c-4-0.4-7.8-1.7-11.4-3.8c-3.6-2.1-6.6-4.9-8.9-8.1c-2.3-3.3-3.9-7.1-4.7-11.2c-0.8-4.1-0.8-8.2,0.1-12.1
			c1.4-6.2,4.4-11.6,9-15.8c4.7-4.3,10.3-6.8,16.6-7.4c0.9-0.1,1.9-0.2,2.9-0.2c4.2,0,8.3,0.9,12.2,2.8c4.7,2.3,8.6,5.7,11.4,10.1
			c2.8,4.4,4.3,9.3,4.4,14.6c0.1,5.1-1.3,10.3-4.1,15.3c-2.8,5-6.5,9.2-11.1,12.3C42.2,161.5,36.7,162.7,30.9,162.1z"/>
		<rect x="74.4" y="77.3" class="st3" width="5.3" height="88.9"/>
		<path class="st3" d="M93.7,77c-1.6,0-2.9,0.6-4.1,1.7c-1.1,1.1-1.7,2.5-1.7,4.1c0,1.6,0.6,2.9,1.7,4.1c1.1,1.1,2.5,1.7,4.1,1.7
			c1.6,0,2.9-0.6,4.1-1.7c1.1-1.1,1.7-2.5,1.7-4.1c0-1.6-0.6-2.9-1.7-4.1C96.6,77.6,95.3,77,93.7,77z"/>
		<rect x="91.1" y="99.7" class="st3" width="5.3" height="66.5"/>
		<polygon class="st3" points="156.9,98.1 130.3,157.6 105.5,98 100.5,99.9 127.7,165.3 130.2,170.9 161.7,100.4 		"/>
		<path class="st3" d="M225.5,129.1c-0.3-3.3-1.1-6.5-2.3-9.5c-2.6-6.3-6.9-11.5-12.6-15.5c-5.8-4-12.3-6-19.4-6
			c-6.2,0-12,1.6-17.3,4.6c-5.3,3.1-9.5,7.3-12.6,12.6c-3.1,5.3-4.6,11.1-4.6,17.3c0,2.8,0.3,5.5,1,8.1c0,0.1,0.1,0.3,0.1,0.4l0,0.1
			c1.9,7.5,6,13.8,12.2,18.7c6.2,4.9,13.3,7.3,21.3,7.3c6,0,11.7-1.4,16.8-4.3c5.1-2.9,9.3-6.8,12.4-11.7l0.4-0.7l-3.1-5.2l-1.2,2
			c-2.5,4.4-6.1,8-10.5,10.7c-4.5,2.6-9.5,4-14.8,4c-6.7,0-12.7-2.1-17.9-6.1c-5.2-4-8.7-9.3-10.4-15.5l0-0.4
			c-0.6-2.3-0.9-4.8-0.9-7.2c0-0.2,0-0.4,0-0.5h60.4c1.3,0,2-0.1,2.5-0.5C225.8,130.9,225.6,129.6,225.5,129.1z M162.5,126.8
			c1.3-6.4,4.5-11.8,9.5-16.2c5.4-4.8,11.9-7.2,19.1-7.2c5.8,0,11.2,1.6,16,4.7c4.8,3.1,8.4,7.3,10.7,12.5c0.9,2,1.6,4.1,2,6.2
			H162.5z"/>
	</g>
	<g>
		<path class="st4" d="M280.1,106.8c-2.8-3.3-6.3-5.7-10.4-7.1c-3.9-1.3-8.2-1.6-12.4-0.9c-5.3,0.9-10.1,3.1-14.2,6.7
			c-1.5,1.3-2.8,2.7-4,4.3V100h-4.5v65.7h4.5v-46.4c1.4-4.1,3.7-7.7,7-10.5c3.4-3,7.4-4.9,11.9-5.6c3.6-0.6,7-0.3,10.3,0.8
			c3.3,1.1,6.1,3,8.4,5.8c2.2,2.5,3.7,5.6,4.5,9.3c0.5,2.5,0.8,6.2,0.8,11v35.7h4.5v-35.7c0-5.2-0.3-9.2-0.9-12
			C284.6,113.7,282.7,109.9,280.1,106.8z"/>
		<path class="st4" d="M347.8,103.1c-5.2-3-11-4.6-17.1-4.6c-6.2,0-11.9,1.6-17.2,4.6c-5.2,3-9.4,7.2-12.5,12.4
			c-3,5.2-4.6,11-4.6,17.2c0,6.2,1.5,11.9,4.6,17.1c3,5.2,7.2,9.4,12.5,12.4c5.2,3,11,4.6,17.2,4.6c6.2,0,11.9-1.5,17.1-4.6
			c5.2-3,9.4-7.2,12.4-12.4c3-5.2,4.6-11,4.6-17.1c0-6.2-1.5-11.9-4.6-17.2C357.2,110.3,353,106.1,347.8,103.1z M330.7,162.3
			c-5.3,0-10.4-1.3-14.9-4c-4.5-2.6-8.2-6.2-10.8-10.8c-2.6-4.5-4-9.5-4-14.8c0-5.3,1.3-10.4,4-14.9c2.6-4.5,6.3-8.2,10.8-10.8
			c4.5-2.6,9.6-4,14.9-4c5.3,0,10.3,1.3,14.8,4c4.5,2.6,8.2,6.2,10.8,10.8c2.6,4.5,4,9.6,4,14.9c0,5.3-1.3,10.3-4,14.8
			c-2.6,4.5-6.3,8.1-10.8,10.8C341,160.9,336.1,162.3,330.7,162.3z"/>
		<polygon class="st4" points="453.1,98.6 426.3,158.5 411.4,122.8 421.4,100.6 417.3,98.6 409,117.1 401.2,98.5 397.1,100.1 
			406.5,122.7 390.5,158.5 365.5,98.5 361.3,100.1 388.3,165.2 390.4,170 408.9,128.5 424.1,165.1 426.1,170 457.2,100.5 		"/>
	</g>
	<defs>
		<filter id="Adobe_OpacityMaskFilter_2_" filterUnits="userSpaceOnUse" x="358.4" y="0" width="46.8" height="61.7">
			<feFlood  style="flood-color:white;flood-opacity:1" result="back"/>
			<feBlend  in="SourceGraphic" in2="back" mode="normal"/>
		</filter>
	</defs>
	<mask maskUnits="userSpaceOnUse" x="358.4" y="0" width="46.8" height="61.7" id="SVGID_3_">
		<g class="st5">
			<defs>
				<filter id="Adobe_OpacityMaskFilter_3_" filterUnits="userSpaceOnUse" x="358.4" y="0" width="46.8" height="61.7">
					<feFlood  style="flood-color:white;flood-opacity:1" result="back"/>
					<feBlend  in="SourceGraphic" in2="back" mode="normal"/>
				</filter>
			</defs>
			<mask maskUnits="userSpaceOnUse" x="358.4" y="0" width="46.8" height="61.7" id="SVGID_3_">
				<g class="st6">
				</g>
			</mask>
			
				<linearGradient id="SVGID_4_" gradientUnits="userSpaceOnUse" x1="386.1075" y1="-11.8891" x2="372.7686" y2="30.7996" gradientTransform="matrix(0.9991 4.200000e-002 -4.200000e-002 0.9991 2.8531 -12.7652)">
				<stop  offset="0" style="stop-color:#FFFFFF"/>
				<stop  offset="0.4271" style="stop-color:#F7F7F7"/>
				<stop  offset="1" style="stop-color:#F2F2F2"/>
			</linearGradient>
			<path class="st7" d="M403.8,4.8c-2-2.8-5.3-3.3-6-3.4c-1.2-0.1-9.3-0.5-15.9-0.8C374.9,0.3,367,0,365.4,0c-3.2,0-6,2.1-7,5
				c0.7,0.2,1.5,0.4,2.2,0.7c0.7-1.9,2.6-3.3,4.8-3.3c1.3,0,8.1,0.2,16.4,0.6c8.4,0.3,14.8,0.7,15.7,0.8c0.3,0,2.9,0.4,4.3,2.4
				c0.9,1.3,1.2,3.1,0.6,5.3c-0.5,1.9-1,4.4-1.6,7c-1.5,6.5-3.4,14.6-3.9,16.2c-0.5,1.5-3.1,6.1-8.5,4.7c-2.3-0.5-6.6-2-6.6-2.1
				l-0.8-0.3l-9.7,14.2l3-15.5l-1-0.3c-2.3-0.6-5-1.4-7.5-2.2c-0.2,0.7-0.4,1.5-0.6,2.3c2.5,0.7,5,1.5,6.5,1.9L367,61.7l15-21.9
				c1.4,0.5,4.2,1.4,6,1.8c0.8,0.2,1.5,0.3,2.2,0.4c5.1,0.2,8.2-3.8,9.1-6.6c0.5-1.7,2.3-9.5,3.9-16.3c0.6-2.6,1.2-5.1,1.6-7
				C405.5,9.1,405.2,6.7,403.8,4.8z"/>
		</g>
	</mask>
	<path class="st4" d="M403.8,4.8c-2-2.8-5.3-3.3-6-3.4c-1.2-0.1-9.3-0.5-15.9-0.8C374.9,0.3,367,0,365.4,0c-3.2,0-6,2.1-7,5
		c0.7,0.2,1.5,0.4,2.2,0.7c0.7-1.9,2.6-3.3,4.8-3.3c1.3,0,8.1,0.2,16.4,0.6c8.4,0.3,14.8,0.7,15.7,0.8c0.3,0,2.9,0.4,4.3,2.4
		c0.9,1.3,1.2,3.1,0.6,5.3c-0.5,1.9-1,4.4-1.6,7c-1.5,6.5-3.4,14.6-3.9,16.2c-0.5,1.5-3.1,6.1-8.5,4.7c-2.3-0.5-6.6-2-6.6-2.1
		l-0.8-0.3l-9.7,14.2l3-15.5l-1-0.3c-2.3-0.6-5-1.4-7.5-2.2c-0.2,0.7-0.4,1.5-0.6,2.3c2.5,0.7,5,1.5,6.5,1.9L367,61.7l15-21.9
		c1.4,0.5,4.2,1.4,6,1.8c0.8,0.2,1.5,0.3,2.2,0.4c5.1,0.2,8.2-3.8,9.1-6.6c0.5-1.7,2.3-9.5,3.9-16.3c0.6-2.6,1.2-5.1,1.6-7
		C405.5,9.1,405.2,6.7,403.8,4.8z"/>
	<defs>
		<filter id="Adobe_OpacityMaskFilter_4_" filterUnits="userSpaceOnUse" x="229.2" y="24.1" width="64.6" height="67.2">
			<feFlood  style="flood-color:white;flood-opacity:1" result="back"/>
			<feBlend  in="SourceGraphic" in2="back" mode="normal"/>
		</filter>
	</defs>
	<mask maskUnits="userSpaceOnUse" x="229.2" y="24.1" width="64.6" height="67.2" id="SVGID_5_">
		<g class="st8">
			<defs>
				<filter id="Adobe_OpacityMaskFilter_5_" filterUnits="userSpaceOnUse" x="229.2" y="24.1" width="64.6" height="67.2">
					<feFlood  style="flood-color:white;flood-opacity:1" result="back"/>
					<feBlend  in="SourceGraphic" in2="back" mode="normal"/>
				</filter>
			</defs>
			<mask maskUnits="userSpaceOnUse" x="229.2" y="24.1" width="64.6" height="67.2" id="SVGID_5_">
				<g class="st9">
				</g>
			</mask>
			
				<linearGradient id="SVGID_6_" gradientUnits="userSpaceOnUse" x1="253.3343" y1="34.2199" x2="265.1188" y2="73.7943" gradientTransform="matrix(0.9991 4.200000e-002 -4.200000e-002 0.9991 2.8531 -12.7652)">
				<stop  offset="0" style="stop-color:#FFFFFF"/>
				<stop  offset="0.4271" style="stop-color:#F7F7F7"/>
				<stop  offset="1" style="stop-color:#F2F2F2"/>
			</linearGradient>
			<path class="st10" d="M278.6,75.9c7.9,0.3,13-5.2,15.2-11.5c-0.9-0.1-1.7-0.2-2.4-0.3c-1.8,5-5.9,9.7-12.7,9.4
				c-2.1-0.1-4.4-0.7-6.8-1.7l-5-2.2l11.8,13c-7-3.8-17.7-9.8-20.3-11.3l-0.4-0.3l-0.5,0.2c-2.2,0.7-4.7,1-7.1,0.9
				c-4.8-0.2-11.4-2.1-16.2-9.8c-3.3-5.5-3.8-16.5,0.7-24.3c2.5-4.2,7.4-9.1,17.1-8.6c3.9,0.2,8.2,1.2,13,3l1.2,0.5l0.3-1.2
				c0.9-3.3,4.6-5.3,9.4-5.1c0.9,0,1.9,0.2,2.9,0.4c0-0.8,0-1.6,0-2.4c-0.9-0.2-1.9-0.3-2.8-0.4c-5.4-0.2-9.7,1.9-11.3,5.6
				c-4.5-1.6-8.8-2.6-12.6-2.7c-10.8-0.5-16.4,5.1-19.2,9.8c-5.2,8.7-4.4,20.6-0.7,26.7c5.2,8.6,12.7,10.7,18.1,11
				c2.5,0.1,5.1-0.2,7.4-0.8c4.9,2.8,25.8,14.3,26,14.4l6.1,3.4l-14.5-15.9C276.4,75.7,277.5,75.8,278.6,75.9z"/>
		</g>
	</mask>
	<path class="st4" d="M278.6,75.9c7.9,0.3,13-5.2,15.2-11.5c-0.9-0.1-1.7-0.2-2.4-0.3c-1.8,5-5.9,9.7-12.7,9.4
		c-2.1-0.1-4.4-0.7-6.8-1.7l-5-2.2l11.8,13c-7-3.8-17.7-9.8-20.3-11.3l-0.4-0.3l-0.5,0.2c-2.2,0.7-4.7,1-7.1,0.9
		c-4.8-0.2-11.4-2.1-16.2-9.8c-3.3-5.5-3.8-16.5,0.7-24.3c2.5-4.2,7.4-9.1,17.1-8.6c3.9,0.2,8.2,1.2,13,3l1.2,0.5l0.3-1.2
		c0.9-3.3,4.6-5.3,9.4-5.1c0.9,0,1.9,0.2,2.9,0.4c0-0.8,0-1.6,0-2.4c-0.9-0.2-1.9-0.3-2.8-0.4c-5.4-0.2-9.7,1.9-11.3,5.6
		c-4.5-1.6-8.8-2.6-12.6-2.7c-10.8-0.5-16.4,5.1-19.2,9.8c-5.2,8.7-4.4,20.6-0.7,26.7c5.2,8.6,12.7,10.7,18.1,11
		c2.5,0.1,5.1-0.2,7.4-0.8c4.9,2.8,25.8,14.3,26,14.4l6.1,3.4l-14.5-15.9C276.4,75.7,277.5,75.8,278.6,75.9z"/>
	<defs>
		<filter id="Adobe_OpacityMaskFilter_6_" filterUnits="userSpaceOnUse" x="280.5" y="5.6" width="87.1" height="82.7">
			<feFlood  style="flood-color:white;flood-opacity:1" result="back"/>
			<feBlend  in="SourceGraphic" in2="back" mode="normal"/>
		</filter>
	</defs>
	<mask maskUnits="userSpaceOnUse" x="280.5" y="5.6" width="87.1" height="82.7" id="SVGID_7_">
		<g class="st11">
			<defs>
				<filter id="Adobe_OpacityMaskFilter_7_" filterUnits="userSpaceOnUse" x="280.5" y="5.6" width="87.1" height="82.7">
					<feFlood  style="flood-color:white;flood-opacity:1" result="back"/>
					<feBlend  in="SourceGraphic" in2="back" mode="normal"/>
				</filter>
			</defs>
			<mask maskUnits="userSpaceOnUse" x="280.5" y="5.6" width="87.1" height="82.7" id="SVGID_7_">
				<g class="st12">
				</g>
			</mask>
			
				<linearGradient id="SVGID_8_" gradientUnits="userSpaceOnUse" x1="278.7353" y1="45.7183" x2="365.7398" y2="45.7183" gradientTransform="matrix(0.9991 4.200000e-002 -4.200000e-002 0.9991 2.8531 -12.7652)">
				<stop  offset="0" style="stop-color:#FFFFFF"/>
				<stop  offset="0.4271" style="stop-color:#F7F7F7"/>
				<stop  offset="1" style="stop-color:#F2F2F2"/>
			</linearGradient>
			<path class="st13" d="M333,88.3l-26.7-23.9c-2.2-0.3-13.9-1.9-15.8-2.1c-2.4-0.3-9.7-4.1-9.9-9.2c-0.2-4.7-0.2-34.2-0.1-36.4
				c0.3-7,4.3-10.7,11.8-10.9c7.4-0.2,34.9,0.3,51.4,0.5c6.3,0.1,10.9,0.2,12.1,0.2l0.3,0c2.9,0.1,7,1.7,9.3,5
				c1.5,2,2.9,5.5,1.4,10.8c-1.8,6.4-4.7,17.5-6.9,25.6c-1.3,4.9-2.3,8.8-2.7,10.2c-1.1,3.8-5.3,10.2-14.3,9.5
				c-6.2-0.5-16.1-1.2-20.3-1.5L333,88.3z M356.1,8.7h-0.3c-1.2,0-5.9-0.1-12.1-0.2c-16.4-0.3-43.9-0.7-51.3-0.5
				c-9.1,0.2-9.4,6.4-9.5,8.7c-0.1,2.4-0.1,32.2,0.1,36.2c0.1,3.5,6,6.8,7.8,7c2.1,0.3,16.1,2.2,16.1,2.2l0.4,0l18.9,16.9L319,63.3
				l2,0.1c0.1,0,14.3,1,22.3,1.7c7.5,0.7,11-4.6,11.8-7.8c0.4-1.4,1.4-5.3,2.7-10.2c2.1-8.1,5.1-19.2,6.9-25.6c1-3.5,0.6-6.5-1-8.8
				C361.8,10.1,358.4,8.8,356.1,8.7z"/>
		</g>
	</mask>
	<path class="st3" d="M333,88.3l-26.7-23.9c-2.2-0.3-13.9-1.9-15.8-2.1c-2.4-0.3-9.7-4.1-9.9-9.2c-0.2-4.7-0.2-34.2-0.1-36.4
		c0.3-7,4.3-10.7,11.8-10.9c7.4-0.2,34.9,0.3,51.4,0.5c6.3,0.1,10.9,0.2,12.1,0.2l0.3,0c2.9,0.1,7,1.7,9.3,5c1.5,2,2.9,5.5,1.4,10.8
		c-1.8,6.4-4.7,17.5-6.9,25.6c-1.3,4.9-2.3,8.8-2.7,10.2c-1.1,3.8-5.3,10.2-14.3,9.5c-6.2-0.5-16.1-1.2-20.3-1.5L333,88.3z
		 M356.1,8.7h-0.3c-1.2,0-5.9-0.1-12.1-0.2c-16.4-0.3-43.9-0.7-51.3-0.5c-9.1,0.2-9.4,6.4-9.5,8.7c-0.1,2.4-0.1,32.2,0.1,36.2
		c0.1,3.5,6,6.8,7.8,7c2.1,0.3,16.1,2.2,16.1,2.2l0.4,0l18.9,16.9L319,63.3l2,0.1c0.1,0,14.3,1,22.3,1.7c7.5,0.7,11-4.6,11.8-7.8
		c0.4-1.4,1.4-5.3,2.7-10.2c2.1-8.1,5.1-19.2,6.9-25.6c1-3.5,0.6-6.5-1-8.8C361.8,10.1,358.4,8.8,356.1,8.7z"/>
	<g>
		<path class="st4" d="M17.8,213.2h-3.2v-1.5c0,0-3.4,1.9-6.7,1.9c-4.3,0-7.9-1.8-7.9-11.2c0-7.7,2.5-11.6,9.2-11.6
			c1.9,0,4.7,0.4,5.4,0.6v-9.7h3.2V213.2z M14.5,209.1v-14.9c-0.7-0.1-3.4-0.5-5.2-0.5c-4.6,0-6,3-6,8.7c0,7.1,2.3,8.3,4.9,8.3
			C11.4,210.7,14.5,209.1,14.5,209.1z"/>
		<path class="st4" d="M26.6,182.6h3.3v3.8h-3.3V182.6z M26.6,191.3h3.3v21.9h-3.3V191.3z"/>
		<path class="st4" d="M37.5,216.9c0-2.5,1.2-3.7,3.5-5.4c-0.8-0.5-1.2-1.7-1.2-3c0-0.8,1.5-3.5,1.5-3.5c-1.8-0.8-3.5-2.6-3.5-6.6
			c0-5.4,3.3-7.5,8.2-7.5c2.2,0,4.6,0.6,4.6,0.6l6.5-0.2v2.8l-4.2-0.1c0.8,0.8,1.4,2.1,1.4,4.4c0,5.7-2.8,7.4-8.5,7.4
			c-0.4,0-1.7-0.1-2.1-0.2c0,0-0.8,1.9-0.8,2.5c0,1.8,0.4,2,5.3,2c6.2,0,8.5,1.2,8.5,6.4c0,5-3.5,7-9.7,7
			C40,223.5,37.5,222,37.5,216.9z M43.2,212.8c-1.8,1.4-2.5,2.1-2.5,3.9c0,3,1.3,4.1,6.2,4.1c4.4,0,6.4-1.2,6.4-4.1
			c0-3.3-1.4-3.7-5.4-3.7C46.4,213,43.2,212.8,43.2,212.8z M51,198.4c0-3.5-1.4-4.8-5-4.8c-3.4,0-4.9,1.4-4.9,4.8
			c0,3.5,1.5,4.8,4.9,4.8C49.6,203.2,51,201.8,51,198.4z"/>
		<path class="st4" d="M64,182.6h3.3v3.8H64V182.6z M64,191.3h3.3v21.9H64V191.3z"/>
		<path class="st4" d="M80.8,194.2v10.5c0,4.8,0.3,6.1,3.2,6.1c1.2,0,3.9-0.3,3.9-0.3l0.2,2.7c0,0-2.9,0.5-4.5,0.5c-4.5,0-6-1.7-6-8
			v-11.5h-3.1v-2.8h3.1v-6.7h3.2v6.7h7v2.8H80.8z"/>
		<path class="st4" d="M110.9,209.2c0.1,1.3,1.1,1.8,2.5,1.9l-0.1,2.6c-2.3,0-3.9-0.4-5.2-1.8c0,0-3.9,1.8-7.9,1.8
			c-4,0-6.2-2.3-6.2-6.7c0-4.2,2.2-6,6.7-6.5l6.9-0.7V198c0-3.1-1.3-4.2-3.9-4.2c-3.1,0-8.3,0.6-8.3,0.6l-0.1-2.5c0,0,4.8-1,8.6-1
			c5,0,7.1,2.3,7.1,7.1V209.2z M101.1,202.9c-2.7,0.3-3.7,1.5-3.7,3.9c0,2.5,1.1,4,3.3,4c3.2,0,6.9-1.4,6.9-1.4v-7.2L101.1,202.9z"
			/>
		<path class="st4" d="M120.6,181.8h3.3v31.5h-3.3V181.8z"/>
		<path class="st4" d="M164.8,189.2c0,4.2-2,6.1-6.7,8.3l6.7,6.6c0.5-1.4,1.1-5,1.2-7.1l3.2,0c-0.3,3.1-1.2,7.1-2,9.1l5.7,5.3
			l-2,2.2l-5.3-5c-2,3.3-5.3,5-9.4,5c-8.2,0-10.8-3.5-10.8-9.3c0-5.2,2.2-7.4,6.8-8.8c-2.2-2.5-2.5-4-2.5-6.5c0-3.9,2.8-6.4,7.6-6.4
			C162.4,182.5,164.8,185.1,164.8,189.2z M163.2,206.8l-9.2-9.2c-3.8,1.2-5.3,2.8-5.3,6.6c0,4.3,2,6.6,7.2,6.6
			C159.1,210.7,161.8,209.5,163.2,206.8z M154.9,194.3l1.3,1.2c3.9-1.7,5.4-3,5.4-6.1c0-2.6-1.3-4-4.3-4c-2.8,0-4.3,1.3-4.3,4.1
			C152.9,191.1,153.3,192.6,154.9,194.3z"/>
		<path class="st4" d="M207.1,191.6l-0.1,2.7c0,0-3.5-0.4-5.2-0.4c-5,0-6.4,2.2-6.4,8.1c0,6.5,1,8.8,6.4,8.8c1.7,0,5.2-0.4,5.2-0.4
			l0.1,2.7c0,0-4.1,0.6-6.1,0.6c-7,0-9-3.2-9-11.8c0-7.9,2.6-11,9.1-11C203.2,190.9,207.1,191.6,207.1,191.6z"/>
		<path class="st4" d="M214.6,191.3h3.2v3c0,0,3.8-2.6,8-3.5v3.3c-4.1,0.8-8,3-8,3v16.1h-3.3V191.3z"/>
		<path class="st4" d="M248.7,210.4l0.1,2.6c0,0-5,0.7-8.5,0.7c-6.5,0-8.7-3.8-8.7-11.3c0-8.3,3.6-11.5,9.2-11.5
			c5.8,0,8.8,3.1,8.8,10.3l-0.2,2.5h-14.5c0,4.7,1.4,7.1,5.7,7.1C244,210.8,248.7,210.4,248.7,210.4z M246.3,201
			c0-5.4-1.7-7.4-5.5-7.4c-3.7,0-5.8,2.1-5.9,7.4H246.3z"/>
		<path class="st4" d="M273,209.2c0.1,1.3,1.1,1.8,2.5,1.9l-0.1,2.6c-2.3,0-3.9-0.4-5.2-1.8c0,0-3.9,1.8-7.9,1.8
			c-4,0-6.2-2.3-6.2-6.7c0-4.2,2.2-6,6.7-6.5l6.9-0.7V198c0-3.1-1.3-4.2-3.9-4.2c-3.1,0-8.3,0.6-8.3,0.6l-0.1-2.5c0,0,4.8-1,8.6-1
			c5,0,7.1,2.3,7.1,7.1V209.2z M263.2,202.9c-2.7,0.3-3.7,1.5-3.7,3.9c0,2.5,1.1,4,3.3,4c3.2,0,6.9-1.4,6.9-1.4v-7.2L263.2,202.9z"
			/>
		<path class="st4" d="M286.4,194.2v10.5c0,4.8,0.3,6.1,3.2,6.1c1.2,0,3.9-0.3,3.9-0.3l0.2,2.7c0,0-2.9,0.5-4.5,0.5
			c-4.5,0-6-1.7-6-8v-11.5h-3.1v-2.8h3.1v-6.7h3.2v6.7h7v2.8H286.4z"/>
		<path class="st4" d="M300.6,182.6h3.3v3.8h-3.3V182.6z M300.6,191.3h3.3v21.9h-3.3V191.3z"/>
		<path class="st4" d="M314.5,191.3l5.1,19.1h1.6l5.3-19.1h3.4l-6.2,21.9h-6.6l-6.2-21.9H314.5z"/>
		<path class="st4" d="M352.7,210.4l0.1,2.6c0,0-5,0.7-8.5,0.7c-6.5,0-8.7-3.8-8.7-11.3c0-8.3,3.6-11.5,9.2-11.5
			c5.8,0,8.8,3.1,8.8,10.3l-0.2,2.5h-14.5c0,4.7,1.4,7.1,5.7,7.1C347.9,210.8,352.7,210.4,352.7,210.4z M350.2,201
			c0-5.4-1.7-7.4-5.5-7.4c-3.7,0-5.8,2.1-5.9,7.4H350.2z"/>
		<path class="st4" d="M379.2,194.2v10.5c0,4.8,0.3,6.1,3.2,6.1c1.2,0,3.9-0.3,3.9-0.3l0.2,2.7c0,0-2.9,0.5-4.5,0.5
			c-4.5,0-6-1.7-6-8v-11.5h-3.1v-2.8h3.1v-6.7h3.2v6.7h7v2.8H379.2z"/>
		<path class="st4" d="M409.3,210.4l0.1,2.6c0,0-5,0.7-8.5,0.7c-6.5,0-8.7-3.8-8.7-11.3c0-8.3,3.6-11.5,9.2-11.5
			c5.8,0,8.8,3.1,8.8,10.3l-0.2,2.5h-14.5c0,4.7,1.4,7.1,5.7,7.1C404.5,210.8,409.3,210.4,409.3,210.4z M406.8,201
			c0-5.4-1.7-7.4-5.5-7.4c-3.7,0-5.8,2.1-5.9,7.4H406.8z"/>
		<path class="st4" d="M432.3,191.6l-0.1,2.7c0,0-3.5-0.4-5.2-0.4c-5,0-6.4,2.2-6.4,8.1c0,6.5,1,8.8,6.4,8.8c1.7,0,5.2-0.4,5.2-0.4
			l0.1,2.7c0,0-4.1,0.6-6.1,0.6c-7,0-9-3.2-9-11.8c0-7.9,2.6-11,9.1-11C428.4,190.9,432.3,191.6,432.3,191.6z"/>
		<path class="st4" d="M439.8,213.2v-31.5h3.3v10.8c0,0,3.5-1.7,6.7-1.7c6,0,7.4,3,7.4,10.8v11.6h-3.3v-11.5c0-5.8-0.7-7.9-4.7-7.9
			c-3.1,0-6.2,1.3-6.2,1.3v18.1H439.8z"/>
	</g>
</g>
</svg>
